<?xml version="1.0" standalone="no"?>
<!DOCTYPE svg PUBLIC "-//W3C//DTD SVG 20010904//EN"
 "http://www.w3.org/TR/2001/REC-SVG-20010904/DTD/svg10.dtd">
<svg version="1.0" xmlns="http://www.w3.org/2000/svg"
 width="512.000000pt" height="512.000000pt" viewBox="0 0 512.000000 512.000000"
 preserveAspectRatio="xMidYMid meet">
<metadata>
Created by potrace 1.14, written by Peter Selinger 2001-2017
</metadata>
<g transform="translate(0.000000,512.000000) scale(0.100000,-0.100000)"
fill="#000000" stroke="none">
<path d="M0 2560 l0 -2560 2560 0 2560 0 0 2560 0 2560 -2560 0 -2560 0 0
-2560z m2357 2348 c-3 -8 -6 -5 -6 6 -1 11 2 17 5 13 3 -3 4 -12 1 -19z m23
-111 c-15 -64 -67 -162 -128 -239 -38 -49 -46 -67 -50 -111 -4 -46 -1 -57 21
-83 24 -27 30 -29 103 -30 42 -1 91 2 108 7 17 4 60 15 96 25 36 9 71 21 78
26 23 19 13 -27 -10 -49 -31 -27 -102 -66 -161 -88 -41 -16 -50 -16 -57 -4 -7
11 -13 9 -33 -9 -27 -25 -42 -29 -33 -7 8 23 -10 18 -27 -7 -8 -13 -18 -20
-23 -15 -4 4 -2 13 4 19 7 7 12 16 12 22 0 5 -15 -5 -34 -23 -31 -30 -37 -32
-79 -26 -56 9 -104 37 -119 71 -9 20 -9 27 1 33 10 6 9 10 -4 15 -15 5 -17 14
-11 51 8 62 25 92 104 183 37 43 84 98 105 123 38 46 77 117 77 144 0 8 5 15
10 15 6 0 10 7 10 16 0 10 6 14 15 10 8 -3 15 0 15 7 0 7 5 4 11 -6 8 -13 7
-33 -1 -70z m1151 -239 c14 -88 54 -218 89 -284 15 -30 32 -74 35 -96 8 -47
-11 -128 -31 -128 -7 0 -11 -6 -8 -14 7 -19 -27 -38 -47 -25 -21 13 -32 11
-25 -6 7 -19 -18 -20 -33 -1 -16 19 -53 17 -46 -2 7 -20 -54 -5 -81 20 -17 15
-23 16 -26 6 -4 -10 -10 -9 -25 5 -11 9 -22 14 -25 11 -6 -5 -55 18 -137 66
-19 10 -60 39 -92 65 -55 41 -59 48 -59 85 0 35 12 54 22 33 6 -15 84 -71 133
-96 73 -36 151 -57 217 -57 49 0 63 4 83 24 38 39 41 85 11 196 -26 98 -35
223 -17 234 4 3 11 20 15 38 6 32 6 32 22 10 8 -12 20 -50 25 -84z m-714 -464
c-3 -3 -12 -4 -19 -1 -8 3 -5 6 6 6 11 1 17 -2 13 -5z m-301 -310 c0 -9 4 -19
11 -21 7 -3 9 3 6 16 -3 12 -1 21 6 21 6 0 11 -7 11 -16 0 -13 3 -14 14 -5 11
10 19 5 40 -22 14 -19 26 -42 26 -52 0 -15 -7 -17 -47 -12 -52 6 -111 25 -80
26 20 1 23 17 3 28 -9 6 -11 15 -5 31 10 26 17 29 15 6z m657 -121 c-7 -2 -19
-2 -25 0 -7 3 -2 5 12 5 14 0 19 -2 13 -5z m-1448 -417 c72 -69 167 -108 303
-124 46 -6 86 -13 90 -17 4 -4 7 -40 6 -80 0 -53 -5 -77 -17 -89 -8 -9 -18
-25 -22 -35 -7 -22 -45 -17 -45 5 0 8 -7 14 -15 14 -9 0 -15 -9 -15 -25 0 -22
-4 -25 -27 -22 -21 3 -29 11 -35 36 -10 36 -28 33 -28 -5 0 -18 -5 -24 -21
-24 -32 0 -134 58 -184 105 -43 39 -45 44 -45 96 0 30 -5 61 -10 69 -5 8 -10
11 -10 6 0 -5 -6 -4 -12 1 -7 6 -21 9 -31 8 -44 -7 -35 83 13 143 l25 31 25
-32 c14 -17 39 -45 55 -61z m1363 16 c7 -5 10 -16 6 -25 -3 -9 3 -35 15 -57
12 -22 21 -58 21 -79 l0 -38 -62 -7 c-35 -3 -123 -16 -197 -28 -125 -21 -134
-21 -146 -5 -17 23 -24 21 -35 -8 -12 -31 -26 -32 -33 -4 -7 27 -30 20 -37
-12 -8 -33 -60 -41 -60 -10 0 30 -17 26 -34 -8 -12 -22 -26 -31 -63 -39 -139
-31 -148 -28 -156 55 -3 32 -9 69 -13 82 -5 16 -4 22 3 18 7 -4 9 0 7 10 -2
10 -1 23 3 29 12 18 332 88 448 98 11 1 28 -1 37 -6 11 -5 20 -3 25 6 14 23
241 47 271 28z m288 -89 c67 -71 99 -113 99 -131 1 -10 4 -22 8 -29 4 -6 0
-18 -9 -27 -8 -9 -12 -21 -8 -27 5 -8 3 -9 -5 -5 -7 5 -19 0 -27 -10 -14 -18
-14 -17 -4 4 9 18 8 23 -5 28 -9 4 -24 -1 -34 -10 -22 -20 -36 -7 -26 24 7 23
-13 28 -33 8 -16 -16 -28 -2 -12 17 18 21 6 45 -19 38 -12 -3 -21 -10 -21 -17
0 -6 -5 -3 -11 7 -9 15 -6 24 11 42 27 29 21 60 -11 50 -20 -7 -20 -6 -3 27
37 73 49 75 110 11z m-2142 -8 c-5 -11 -2 -13 10 -9 30 11 19 -59 -21 -135
l-37 -71 14 -77 c14 -79 19 -199 10 -240 -3 -12 -1 -23 5 -23 18 -2 27 65 21
160 -11 159 -10 209 7 228 26 29 59 115 54 145 -5 35 20 37 56 3 28 -26 49
-62 74 -133 38 -103 11 -408 -44 -502 -39 -66 -223 -247 -238 -233 -3 3 -10 0
-15 -8 -8 -12 -10 -11 -10 5 0 17 -2 18 -10 5 -7 -11 -9 -2 -4 30 3 25 7 51
10 57 5 18 -6 43 -20 43 -6 0 -28 -13 -47 -30 -35 -29 -37 -29 -53 -11 -10 11
-33 22 -53 26 -20 3 -52 17 -73 30 -34 22 -38 28 -48 94 -23 137 -10 317 28
406 27 60 111 138 198 183 115 59 118 59 125 16 6 -38 -6 -72 -46 -125 -22
-30 -21 -66 7 -187 14 -62 15 -84 5 -133 -12 -60 -6 -86 12 -59 10 15 6 214
-6 302 -6 41 -4 51 21 84 22 29 29 50 32 100 3 48 8 64 21 67 9 3 17 5 18 6 1
0 0 -6 -3 -14z m2821 -169 c10 4 13 -12 14 -72 1 -65 -3 -84 -24 -119 -13 -24
-39 -55 -57 -70 -29 -24 -38 -27 -84 -22 -43 4 -104 26 -123 43 -3 2 6 15 18
28 34 36 8 42 -36 9 -20 -15 -34 -23 -30 -16 4 6 3 14 -3 18 -5 3 -10 1 -10
-5 0 -6 -5 -8 -11 -4 -7 4 0 17 20 36 54 50 37 65 -26 23 -37 -26 -37 -26 -45
-5 -4 11 -15 20 -24 20 -10 0 -14 3 -11 6 3 4 2 15 -3 24 -6 10 -7 32 -4 48 6
29 24 35 52 18 8 -5 86 -16 138 -19 11 -1 28 -8 37 -16 10 -7 36 -16 60 -18
49 -6 77 13 77 51 0 27 24 51 40 41 5 -3 11 2 11 12 1 16 2 16 6 1 2 -9 10
-15 18 -12z m-892 -126 c11 -17 19 -19 38 -11 13 5 18 10 10 10 -8 1 -12 4 -8
7 3 3 18 -3 34 -13 15 -11 63 -37 105 -59 43 -21 78 -44 78 -50 0 -6 8 -10 18
-10 9 1 19 -3 20 -9 2 -5 9 -19 14 -30 11 -20 11 -20 -10 -1 -12 10 -19 24
-15 30 4 6 -1 5 -10 -3 -15 -12 -22 -10 -54 15 -20 15 -33 23 -30 16 4 -6 -20
1 -52 15 -33 14 -58 30 -55 35 3 5 0 8 -7 7 -21 -4 -89 12 -95 22 -3 5 -10 6
-16 3 -5 -4 -45 -19 -88 -34 -66 -23 -78 -25 -73 -11 5 13 3 14 -8 4 -7 -7
-18 -13 -23 -13 -6 0 0 7 12 16 15 10 27 12 35 6 8 -6 26 -3 52 9 27 13 34 19
20 19 -13 1 -2 10 30 25 61 30 61 30 78 5z m-838 -30 c3 -5 1 -10 -4 -10 -6 0
-11 5 -11 10 0 6 2 10 4 10 3 0 8 -4 11 -10z m-44 -33 c-10 -9 -11 -8 -5 6 3
10 9 15 12 12 3 -3 0 -11 -7 -18z m656 -33 c-3 -3 -12 -4 -19 -1 -8 3 -5 6 6
6 11 1 17 -2 13 -5z m-2330 -51 c-3 -10 -5 -2 -5 17 0 19 2 27 5 18 2 -10 2
-26 0 -35z m1072 1 c25 -42 25 -42 5 -40 -33 2 -23 -22 30 -74 48 -47 54 -57
50 -87 -2 -19 -17 -48 -33 -66 -16 -18 -38 -42 -48 -54 l-19 -22 -47 50 c-26
28 -56 68 -67 90 -19 36 -40 45 -40 16 0 -16 65 -114 102 -153 l30 -32 -35
-45 -34 -45 -31 31 c-32 31 -57 31 -34 -1 44 -62 44 -66 9 -133 -17 -35 -41
-87 -52 -116 -11 -29 -24 -52 -29 -52 -5 0 -12 -5 -16 -12 -11 -17 -38 10 -32
31 3 8 1 12 -3 8 -13 -12 -47 12 -41 28 4 10 2 12 -5 8 -20 -12 0 102 37 216
48 148 164 372 232 448 28 31 31 32 42 15 10 -16 10 -16 5 5 -9 32 0 27 24
-14z m2548 15 c33 -21 34 -23 29 -72 -4 -29 -2 -55 4 -63 8 -8 8 -14 0 -19
-15 -9 -12 -35 5 -35 18 0 19 -12 4 -27 -15 -15 -1 -57 27 -84 13 -12 24 -29
24 -38 0 -10 -9 -6 -30 14 -32 30 -37 28 -19 -8 l12 -22 -24 20 c-13 11 -29
26 -37 33 -18 16 -37 15 -52 -3 -7 -9 -20 -15 -29 -13 -9 1 -21 -1 -28 -5 -6
-4 -14 -3 -18 3 -4 6 -15 4 -29 -5 -13 -9 -32 -17 -43 -19 -20 -4 -20 -8 -15
138 l2 58 82 84 c45 46 86 84 91 84 5 0 25 -10 44 -21z m-3642 1 c3 -5 2 -10
-4 -10 -5 0 -13 5 -16 10 -3 6 -2 10 4 10 5 0 13 -4 16 -10z m2110 -20 c3 -5
2 -10 -4 -10 -5 0 -13 5 -16 10 -3 6 -2 10 4 10 5 0 13 -4 16 -10z m1104 -11
c32 -9 41 -17 41 -35 0 -29 -29 -40 -49 -18 -13 13 -13 17 -3 21 9 3 0 14 -25
30 -21 13 -31 22 -22 19 10 -2 35 -10 58 -17z m-1169 -9 c0 -5 -4 -10 -10 -10
-5 0 -10 5 -10 10 0 6 5 10 10 10 6 0 10 -4 10 -10z m1266 -29 c-4 -5 -2 -11
2 -13 5 -1 20 -28 34 -58 19 -39 23 -59 16 -67 -16 -20 -30 -4 -26 28 5 35 1
37 -12 7 -7 -18 -9 -19 -9 -5 -1 9 -5 17 -11 17 -5 0 -10 7 -10 16 0 10 -5 12
-12 7 -7 -4 -5 6 6 21 10 16 13 25 7 22 -12 -8 -16 16 -4 27 10 10 25 8 19 -2z
m-1367 -97 c57 -83 132 -115 271 -115 111 0 209 23 321 74 l77 35 -5 -42 c-2
-22 -9 -60 -14 -84 -5 -24 -7 -48 -3 -53 4 -7 -25 -8 -87 -4 -75 5 -110 2
-171 -13 -43 -11 -78 -15 -78 -11 0 17 -22 9 -27 -10 -3 -14 -20 -23 -56 -32
-45 -10 -52 -10 -63 6 -16 21 -37 10 -29 -16 8 -24 -12 -25 -36 -3 -18 16 -44
11 -34 -7 10 -16 -30 -10 -78 11 -45 20 -167 139 -167 163 0 7 -7 25 -15 40
-13 25 -13 31 -1 43 8 8 23 14 33 14 10 0 29 7 41 16 12 8 26 13 30 10 4 -2
14 -1 22 5 27 16 45 9 69 -27z m779 -68 c94 -72 156 -99 242 -104 70 -4 78 -2
106 22 17 14 34 23 37 19 4 -3 9 2 13 11 3 9 10 14 15 11 4 -3 6 -12 2 -20 -3
-8 -1 -15 5 -15 14 0 -24 -124 -56 -183 -24 -45 -25 -66 -2 -52 15 9 55 91 75
156 l18 56 24 -20 c13 -12 21 -27 19 -34 -3 -7 0 -12 6 -10 6 1 18 -10 27 -25
14 -24 14 -28 -2 -46 -26 -28 -21 -35 19 -27 25 4 34 3 29 -4 -3 -6 1 -18 9
-27 16 -16 23 -59 8 -50 -5 3 -7 -8 -4 -23 6 -41 -33 -125 -54 -117 -12 5 -15
2 -10 -9 3 -9 2 -13 -4 -10 -6 3 -10 -2 -10 -11 0 -13 -3 -15 -11 -7 -7 7 -5
23 7 52 23 59 9 64 -34 11 -20 -25 -56 -64 -80 -87 -44 -42 -51 -74 -11 -52
33 17 33 3 0 -21 -17 -12 -31 -30 -31 -41 0 -11 -4 -18 -8 -15 -5 3 -20 -1
-35 -9 -23 -12 -28 -11 -43 6 -16 18 -16 22 5 67 24 52 48 136 57 197 11 69
-20 21 -47 -73 -12 -45 -32 -99 -44 -120 l-21 -37 -80 0 c-74 0 -80 2 -70 17
14 24 -1 35 -26 19 -25 -16 -50 1 -30 21 7 7 12 14 12 17 0 4 -36 7 -81 8 -91
3 -132 -10 -171 -52 l-25 -27 -28 25 c-28 24 -27 54 2 43 8 -3 11 -1 8 4 -3 6
1 13 9 16 9 3 16 11 16 16 0 10 -30 7 -62 -6 -11 -5 -18 -1 -23 13 -8 27 -25
27 -25 0 0 -12 -4 -18 -11 -13 -7 4 -26 7 -43 6 -17 0 -36 4 -44 10 -9 8 -16
7 -25 -5 -7 -9 -30 -24 -52 -33 l-39 -16 -23 28 c-27 35 -41 24 -25 -18 6 -18
10 -33 9 -35 -2 -1 -21 13 -43 32 -21 19 -50 36 -64 37 -14 0 -31 2 -38 2 -19
2 -89 140 -103 203 -14 61 -31 82 -53 64 -18 -15 -56 2 -56 24 0 8 -23 31 -50
51 -28 20 -53 47 -56 60 -3 13 -10 21 -15 18 -5 -3 -9 0 -9 5 0 6 6 11 14 11
8 0 21 19 28 43 8 23 21 43 29 44 8 2 27 -19 44 -45 48 -76 103 -130 163 -158
31 -15 87 -54 124 -88 90 -81 175 -126 236 -126 26 0 83 11 126 25 43 14 96
25 117 25 l37 0 -9 -37 c-6 -21 -17 -52 -25 -70 -17 -38 -17 -43 -1 -43 13 0
47 65 64 123 l8 27 75 -36 c143 -69 254 -55 299 39 27 56 26 63 -5 84 -24 16
-25 18 -8 30 10 7 15 15 12 18 -7 8 -38 -5 -38 -16 0 -5 -19 0 -42 12 -39 20
-41 22 -23 35 28 20 9 30 -30 15 -41 -14 -55 -9 -48 19 6 23 3 24 -32 8 -23
-10 -58 -1 -133 38 -1 0 4 18 11 40 8 21 17 60 21 87 4 26 12 47 17 47 6 0 36
-20 67 -44z m-2247 -253 c-18 -114 -31 -154 -50 -151 -9 2 -15 12 -15 21 1 12
-3 16 -15 13 -9 -3 -22 -2 -30 3 -11 7 -11 10 0 17 8 5 22 23 31 39 57 103 83
144 86 140 3 -3 -1 -39 -7 -82z m-826 -72 c13 -27 29 -51 34 -53 14 -4 18 -90
5 -95 -13 -4 -38 52 -53 118 -6 26 -13 54 -17 63 -14 35 7 13 31 -33z m1716
27 c12 -13 19 -17 15 -10 -11 18 -1 15 19 -8 18 -20 18 -20 1 -14 -41 16 -8
-31 65 -91 53 -45 79 -61 89 -55 12 7 11 12 -4 29 -28 31 -12 25 28 -10 31
-27 56 -32 56 -10 0 4 -31 33 -69 65 -51 42 -68 62 -64 74 6 15 5 15 -10 3
-25 -20 -21 -7 5 15 12 10 18 14 15 8 -5 -8 4 -11 26 -10 32 2 47 -7 157 -103
24 -21 46 -31 68 -31 32 0 58 -21 121 -95 5 -6 -7 -19 -31 -32 l-38 -22 -56
30 c-61 31 -102 36 -149 15 -27 -12 -34 -11 -64 7 -48 29 -111 27 -153 -5 -27
-20 -49 -26 -117 -32 -47 -4 -90 -10 -95 -15 -6 -5 -24 -11 -41 -14 -16 -4
-25 -4 -18 -1 13 6 6 35 -11 46 -12 8 19 80 44 103 9 8 27 14 40 13 20 -3 25
3 34 39 6 23 19 50 29 60 10 10 26 28 36 41 12 14 22 19 26 12 10 -16 28 -12
21 5 -8 21 0 19 25 -7z m189 2 c0 -5 -2 -10 -4 -10 -3 0 -8 5 -11 10 -3 6 -1
10 4 10 6 0 11 -4 11 -10z m2308 -42 c-34 -60 -48 -68 -42 -21 2 21 9 40 14
41 6 2 10 10 10 17 0 8 7 11 20 8 20 -5 20 -6 -2 -45z m125 -10 c9 -18 18 -41
21 -50 3 -10 11 -15 19 -12 9 3 22 -8 36 -31 23 -40 26 -49 11 -40 -6 3 -13
-1 -16 -9 -6 -16 8 -45 69 -143 41 -66 41 -79 -4 -124 -18 -18 -22 -18 -42 -4
-12 8 -25 15 -29 15 -15 0 -8 -61 7 -66 20 -8 19 -58 -2 -75 -14 -12 -15 -12
-9 0 7 10 2 12 -23 6 -24 -5 -31 -3 -31 9 0 28 -31 17 -45 -16 l-13 -33 -9 35
c-8 29 -14 35 -36 33 -19 -1 -28 4 -34 20 -4 12 -6 26 -5 31 2 4 -2 14 -8 21
-7 9 -6 23 6 50 12 29 13 44 5 68 -15 42 -14 55 7 53 13 -1 16 5 14 24 -2 14
-5 66 -8 115 -5 98 0 110 51 138 42 23 50 21 68 -15z m-4263 -43 c0 -25 -15
-24 -16 1 -1 13 2 21 7 18 5 -3 9 -11 9 -19z m589 -136 c37 -23 67 -49 55 -49
-4 0 0 -6 9 -12 9 -8 19 -35 23 -65 l6 -51 -122 -1 c-81 -1 -119 2 -115 9 3 5
2 10 -3 10 -4 0 -9 21 -11 47 -2 42 1 50 41 90 47 48 68 52 117 22z m366 -18
c-15 -14 -122 -71 -133 -71 -5 0 -13 7 -16 16 -3 8 -2 13 3 10 5 -3 20 3 34
14 14 11 37 20 50 20 14 0 29 5 32 10 3 6 14 10 23 10 10 0 12 -3 7 -9z m1030
-165 c11 -3 24 -7 30 -8 18 -5 63 -53 81 -88 12 -24 18 -57 19 -103 0 -77 -6
-85 -100 -130 -89 -44 -89 -44 -148 12 -30 28 -59 51 -65 51 -7 0 -37 -16 -68
-36 -81 -52 -106 -59 -144 -39 -37 19 -37 19 12 146 32 85 80 149 113 149 40
0 52 -18 60 -85 9 -90 25 -82 18 9 l-6 74 40 20 c21 11 56 23 76 27 21 4 40
12 43 17 4 7 9 7 13 0 3 -5 15 -12 26 -16z m595 -6 c-12 -8 -11 -10 8 -10 13
0 36 -7 51 -15 16 -8 32 -11 36 -7 3 4 5 2 3 -4 -1 -7 1 -11 6 -10 11 1 32
-68 40 -136 l6 -53 -76 -44 c-97 -56 -148 -63 -191 -27 -37 31 -52 32 -84 7
-53 -40 -91 -53 -146 -49 -40 4 -60 11 -81 31 -27 26 -28 30 -26 121 1 80 5
99 23 122 11 15 21 23 21 19 0 -5 8 1 18 12 24 28 56 43 91 43 33 0 81 -19 81
-32 0 -4 9 -17 20 -28 16 -16 20 -33 20 -80 0 -33 4 -60 10 -60 6 0 10 24 10
54 0 64 7 87 25 80 7 -3 15 2 19 11 3 9 10 14 16 10 5 -3 15 3 22 15 7 11 23
20 35 20 12 0 25 5 28 10 3 6 12 10 18 10 7 0 6 -4 -3 -10z m416 -32 c40 -31
44 -38 44 -79 0 -20 3 -52 7 -70 7 -33 7 -33 17 21 l11 54 55 18 c78 24 112
22 143 -6 33 -31 40 -60 35 -142 -4 -57 -7 -68 -34 -89 -42 -35 -97 -50 -142
-39 -29 7 -42 18 -60 52 -13 23 -28 42 -33 42 -5 0 -32 -16 -60 -35 -92 -63
-160 -56 -209 21 -24 38 -27 53 -27 124 0 65 3 80 14 76 8 -3 26 7 41 22 37
37 69 51 123 51 33 1 54 -5 75 -21z m-3131 2 c4 -6 -17 -10 -57 -10 -44 0 -59
3 -48 10 20 13 97 13 105 0z m659 -103 c-4 -12 -2 -17 4 -13 7 4 10 -5 10 -23
-1 -29 -1 -29 -127 -55 -183 -39 -224 -52 -251 -81 -31 -33 -20 -42 33 -27 23
7 100 24 170 39 113 23 131 24 154 12 34 -18 49 -44 57 -97 5 -30 3 -41 -4
-37 -7 4 -10 0 -8 -10 4 -23 -38 -38 -212 -76 -144 -32 -187 -49 -216 -80 -18
-20 -18 -21 71 -17 52 3 120 13 160 26 97 29 170 38 180 22 5 -8 4 -11 -3 -6
-15 9 -23 -7 -12 -24 5 -9 5 -19 -2 -27 -8 -10 -7 -13 3 -14 13 0 -81 -29
-224 -67 -77 -21 -112 -46 -87 -62 23 -15 95 -11 214 10 128 23 119 23 111 10
-3 -5 -1 -10 5 -10 8 0 8 -6 0 -20 -6 -11 -7 -20 -3 -21 4 -1 -3 -4 -17 -8
-14 -4 -24 -13 -23 -19 2 -7 -9 -14 -25 -18 -15 -3 -46 -12 -70 -21 -24 -8
-55 -12 -70 -9 -20 5 -23 4 -12 -4 13 -8 12 -10 -5 -11 -11 -1 -29 -3 -40 -5
-11 -2 -40 -5 -65 -8 -34 -4 -39 -3 -20 3 23 9 22 9 -10 8 -46 -1 -63 9 -54
35 5 16 3 20 -8 15 -12 -4 -15 3 -15 33 0 28 -8 48 -28 71 -26 31 -27 37 -20
101 6 64 5 71 -20 99 -30 36 -31 78 -3 152 23 60 22 76 -2 107 -21 27 -26 45
-10 35 6 -3 10 1 10 9 0 9 7 16 15 16 8 0 15 4 15 8 0 13 95 31 204 38 54 4
128 15 163 24 85 22 95 21 87 -3z m2900 -18 c45 -53 31 -180 -23 -209 -21 -11
-94 -14 -104 -4 -3 4 3 24 13 45 13 25 20 58 20 95 0 45 5 63 22 81 28 30 41
29 72 -8z m940 -101 c-1 -13 -3 -31 -3 -40 -1 -10 -8 -18 -16 -18 -8 0 -15 1
-15 3 0 1 -4 17 -9 35 -7 25 -6 35 6 47 19 20 41 4 37 -27z m-4374 -18 c0 -5
-5 -10 -11 -10 -5 0 -7 5 -4 10 3 6 8 10 11 10 2 0 4 -4 4 -10z m4312 -66 c35
-75 34 -123 -5 -162 l-24 -23 -31 26 c-22 18 -32 36 -32 54 0 39 44 171 57
171 2 0 18 -30 35 -66z m-4277 46 c6 -10 -73 -55 -82 -46 -7 7 47 56 63 56 7
0 15 -4 19 -10z m795 -26 c12 -12 8 -14 -33 -14 -45 0 -47 1 -37 20 12 23 42
20 70 -6z m1292 -6 c8 -13 21 -40 28 -62 11 -34 10 -43 -10 -83 -12 -24 -26
-43 -30 -41 -5 2 -25 27 -45 57 -32 48 -35 57 -25 82 13 30 46 69 59 69 5 0
15 -10 23 -22z m2537 0 c0 -7 -12 -47 -28 -88 -24 -66 -31 -75 -55 -78 -15 -2
-34 2 -42 9 -16 13 -20 54 -4 44 6 -3 10 0 10 7 0 17 94 118 109 118 6 0 11
-6 10 -12z m-815 -94 c9 -3 13 -10 10 -15 -3 -5 2 -6 10 -3 16 6 82 -81 67
-90 -4 -3 -6 -16 -4 -30 6 -30 -9 -39 -48 -31 -43 10 -69 56 -69 123 0 52 4
57 34 46z m-549 -51 c19 -27 35 -54 35 -61 0 -19 -52 -94 -60 -85 -66 81 -80
135 -45 173 10 11 22 20 26 20 5 0 24 -21 44 -47z m1500 -23 c5 -8 -89 -70
-107 -70 -13 0 -9 37 5 48 10 9 66 28 89 31 4 1 9 -3 13 -9z m-2693 -71 c13
-23 29 -53 36 -66 17 -30 9 -78 -17 -112 l-18 -24 -47 63 c-25 35 -46 68 -46
72 0 17 51 108 60 108 5 0 20 -19 32 -41z m1174 -106 c46 -58 47 -61 23 -94
l-21 -31 -34 33 c-36 35 -44 73 -22 109 17 27 20 26 54 -17z m1110 -3 c2 -8 9
-37 15 -65 6 -27 13 -60 15 -73 6 -31 25 -23 37 14 14 42 29 47 45 13 8 -16
18 -26 23 -24 10 7 21 -49 17 -95 -1 -19 1 -66 4 -105 4 -44 4 -59 -2 -40 -7
25 -8 20 -9 -30 -1 -106 -6 -137 -24 -150 -9 -7 -17 -25 -17 -41 -1 -16 -9
-65 -20 -109 -17 -71 -17 -83 -4 -103 8 -12 12 -23 9 -23 -3 -1 -11 -2 -17 -3
-7 0 -13 -13 -12 -28 1 -15 -5 -29 -13 -32 -8 -3 -11 -1 -8 4 3 6 -1 7 -9 4
-9 -3 -13 -11 -9 -17 4 -6 -2 -8 -17 -4 -13 3 -31 2 -40 -3 -13 -7 -22 -4 -36
12 -13 15 -14 19 -4 14 9 -4 8 -1 -3 7 -10 9 -15 21 -11 31 4 10 -1 25 -10 35
-15 16 -15 19 -1 31 23 19 19 26 -25 39 -22 6 -40 15 -40 19 0 4 -27 18 -59
32 -33 13 -58 27 -56 31 5 8 -33 4 -41 -4 -4 -4 -1 -14 7 -24 10 -12 5 -11
-18 5 -23 16 -33 19 -37 10 -3 -7 -3 1 -1 17 3 17 2 24 -1 17 -5 -10 -9 -9
-20 5 -16 21 -18 37 -4 28 6 -3 10 -2 10 4 0 5 -5 13 -10 16 -16 10 -9 115 8
115 8 0 12 6 9 14 -8 19 43 63 155 135 110 71 127 86 110 103 -21 21 -242 -30
-242 -56 0 -6 -5 -3 -11 7 -5 9 -15 17 -20 17 -30 0 -63 75 -46 105 7 12 7 23
-1 35 -5 9 -7 22 -3 29 37 59 427 131 437 81z m-2306 -107 c45 -66 50 -85 33
-137 -9 -25 -18 -46 -22 -46 -7 0 -60 64 -84 100 -15 23 -14 28 5 73 11 26 26
47 32 47 6 0 22 -17 36 -37z m1192 -55 c19 -24 38 -48 42 -55 8 -14 -29 -93
-43 -93 -5 0 -28 22 -50 49 l-41 49 21 46 c11 25 24 46 28 46 5 0 24 -19 43
-42z m-1210 -140 c69 -87 71 -93 48 -138 -11 -22 -24 -40 -28 -40 -7 0 -46 39
-101 102 l-24 27 27 45 c15 26 31 46 35 46 5 0 24 -19 43 -42z m1298 -149 c0
-20 -44 -79 -59 -79 -21 0 -111 86 -111 106 0 8 7 29 16 47 33 65 34 65 96 -3
32 -35 58 -66 58 -71z m-1226 -137 c10 -17 -49 -142 -68 -142 -14 0 -133 106
-146 130 -7 13 -2 34 22 81 48 99 43 98 117 18 36 -39 70 -78 75 -87z m1176
12 l78 -66 -21 -64 c-12 -35 -25 -65 -29 -66 -10 -4 -178 122 -178 134 0 12
62 128 68 128 3 0 39 -30 82 -66z m1010 -348 c0 -3 -4 -8 -10 -11 -5 -3 -10
-1 -10 4 0 6 5 11 10 11 6 0 10 -2 10 -4z m15 -25 c-3 -6 -11 -11 -16 -11 -5
0 -4 6 3 14 14 16 24 13 13 -3z"/>
<path d="M2105 4273 c-19 -10 -25 -18 -16 -21 7 -2 23 5 34 17 25 25 22 26
-18 4z"/>
<path d="M2150 4245 c-20 -24 -5 -28 21 -6 19 16 20 20 8 21 -9 0 -22 -7 -29
-15z"/>
<path d="M2580 3762 c0 -6 4 -13 10 -17 5 -3 7 -12 3 -20 -3 -8 0 -15 5 -15
20 0 20 15 1 39 -10 13 -19 18 -19 13z"/>
<path d="M3996 2974 c-8 -20 -8 -24 2 -24 4 0 8 9 9 20 2 24 -3 26 -11 4z"/>
<path d="M3972 2777 c-12 -13 -22 -29 -22 -35 0 -21 27 -13 45 14 23 35 5 51
-23 21z"/>
<path d="M3090 2850 c-13 -8 -12 -10 3 -10 9 0 17 5 17 10 0 12 -1 12 -20 0z"/>
<path d="M3269 2808 c-11 -8 -11 -9 3 -5 9 3 18 1 21 -6 2 -8 5 -8 10 0 9 15
-17 23 -34 11z"/>
<path d="M3795 2660 c3 -5 8 -10 11 -10 2 0 4 5 4 10 0 6 -5 10 -11 10 -5 0
-7 -4 -4 -10z"/>
<path d="M3890 2610 c0 -5 5 -10 10 -10 6 0 10 5 10 10 0 6 -4 10 -10 10 -5 0
-10 -4 -10 -10z"/>
<path d="M3715 2135 c-9 -78 0 -94 37 -66 30 24 51 70 46 103 -2 19 -10 24
-40 26 l-36 3 -7 -66z"/>
<path d="M1730 1920 c0 -5 5 -10 11 -10 5 0 7 5 4 10 -3 6 -8 10 -11 10 -2 0
-4 -4 -4 -10z"/>
<path d="M4548 2009 c-26 -14 -24 -80 2 -104 25 -23 45 -8 59 43 17 58 -14 89
-61 61z"/>
<path d="M4643 1863 c-18 -7 -16 -50 3 -57 31 -12 84 -7 84 9 0 33 -53 62 -87
48z"/>
<path d="M381 1130 c0 -8 4 -22 9 -30 12 -18 12 -2 0 25 -6 13 -9 15 -9 5z"/>
<path d="M450 941 c0 -5 7 -11 14 -14 10 -4 13 -1 9 9 -6 15 -23 19 -23 5z"/>
<path d="M4256 945 c4 -8 8 -15 10 -15 2 0 4 7 4 15 0 8 -4 15 -10 15 -5 0 -7
-7 -4 -15z"/>
</g>
</svg>
